<svg xmlns="http://www.w3.org/2000/svg" viewBox="0 0 576 80" width="576" height="80" role="img" aria-hidden="true">
  <defs>
    <linearGradient id="sidebarFadeMask" x1="0" y1="0" x2="1" y2="0">
      <stop offset="0%" stop-color="#000000" stop-opacity="0"/>
      <stop offset="28%" stop-color="#000000" stop-opacity="0"/>
      <stop offset="100%" stop-color="#ffffff"/>
    </linearGradient>
    <mask id="sidebarFadeRight">
      <rect width="100%" height="100%" fill="url(#sidebarFadeMask)"/>
    </mask>
  </defs>
  <g mask="url(#sidebarFadeRight)" fill="#2ec4b6" fill-opacity="0.72">
    <rect x="0"   y="0" width="3" height="12" rx="1.5"/>
    <rect x="16"  y="0" width="3" height="23" rx="1.5"/>
    <rect x="32"  y="0" width="3" height="8"  rx="1.5"/>
    <rect x="48"  y="0" width="3" height="35" rx="1.5"/>
    <rect x="64"  y="0" width="3" height="47" rx="1.5"/>
    <rect x="80"  y="0" width="3" height="18" rx="1.5"/>
    <rect x="96"  y="0" width="3" height="10" rx="1.5"/>
    <rect x="112" y="0" width="3" height="57" rx="1.5"/>
    <rect x="128" y="0" width="3" height="31" rx="1.5"/>
    <rect x="144" y="0" width="3" height="14" rx="1.5"/>
    <rect x="160" y="0" width="3" height="45" rx="1.5"/>
    <rect x="176" y="0" width="3" height="70" rx="1.5"/>
    <rect x="192" y="0" width="3" height="23" rx="1.5"/>
    <rect x="208" y="0" width="3" height="12" rx="1.5"/>
    <rect x="224" y="0" width="3" height="41" rx="1.5"/>
    <rect x="240" y="0" width="3" height="59" rx="1.5"/>
    <rect x="256" y="0" width="3" height="27" rx="1.5"/>
    <rect x="272" y="0" width="3" height="18" rx="1.5"/>
    <rect x="288" y="0" width="3" height="49" rx="1.5"/>
    <rect x="304" y="0" width="3" height="74" rx="1.5"/>
    <rect x="320" y="0" width="3" height="35" rx="1.5"/>
    <rect x="336" y="0" width="3" height="14" rx="1.5"/>
    <rect x="352" y="0" width="3" height="43" rx="1.5"/>
    <rect x="368" y="0" width="3" height="64" rx="1.5"/>
    <rect x="384" y="0" width="3" height="29" rx="1.5"/>
    <rect x="400" y="0" width="3" height="16" rx="1.5"/>
    <rect x="416" y="0" width="3" height="51" rx="1.5"/>
    <rect x="432" y="0" width="3" height="80" rx="1.5"/>
    <rect x="448" y="0" width="3" height="37" rx="1.5"/>
    <rect x="464" y="0" width="3" height="18" rx="1.5"/>
    <rect x="480" y="0" width="3" height="45" rx="1.5"/>
    <rect x="496" y="0" width="3" height="68" rx="1.5"/>
    <rect x="512" y="0" width="3" height="31" rx="1.5"/>
    <rect x="528" y="0" width="3" height="14" rx="1.5"/>
    <rect x="544" y="0" width="3" height="41" rx="1.5"/>
    <rect x="560" y="0" width="3" height="23" rx="1.5"/>
  </g>
</svg>
